# xmcd CD database file
#
# Track frame offsets:
#	150
#	2185
#	11610
#	28624
#	44163
#	57564
#	75430
#	84305
#	99188
#	116511
#	132525
#	150727
#
# Disc length: 2092 seconds
#
# Revision: 0
# Processed by: cddbd v1.5.1PL2 Copyright (c) Steve Scherf et al.
# Submitted via: CDex 1.51
#
DISCID=90082a0c
DTITLE=音速ライン - 風景描写
DYEAR=2005
DGENRE=JPop
TTITLE0=39
TTITLE1=our song
TTITLE2=冬の空
TTITLE3=街風
TTITLE4=流星ライン
TTITLE5=ヒグラシ
TTITLE6=リンカラン
TTITLE7=スワロー
TTITLE8=逢いたい
TTITLE9=逢瀬川
TTITLE10=スローライフ
TTITLE11=×2×2
EXTD=YEAR: 2005
EXTT0=
EXTT1=
EXTT2=
EXTT3=
EXTT4=
EXTT5=
EXTT6=
EXTT7=
EXTT8=
EXTT9=
EXTT10=
EXTT11=
PLAYORDER=
